# xmcd CD database file
#
# Track frame offsets:
#	150
#	14311
#	29295
#	47224
#	62277
#
# Disc length: 1083 seconds
#
# Revision: 1
# Processed by: cddbd v1.5.2PL0 Copyright (c) Steve Scherf et al.
# Submitted via: CDex 1.70beta3
#
DISCID=34043905
DTITLE=STRAIGHTENER - Resplendent
DYEAR=2013
DGENRE=J-Loud
TTITLE0=シンデレラソング
TTITLE1=BRILLIANT DREAMER
TTITLE2=BLACK DYED
TTITLE3=SCARLET STARLET
TTITLE4=WISH I COULD FORGET
EXTD=YEAR: 2013
EXTT0=
EXTT1=
EXTT2=
EXTT3=
EXTT4=
PLAYORDER=
